<svg width="28" height="29" viewBox="0 0 28 29" fill="none" xmlns="http://www.w3.org/2000/svg">
<path d="M1 0C1 0 2 0.5 5 1C8 1.5 18.1097 0 18.1097 0L23.5 7.5L16 15L1 18V0Z" fill="url(#paint0_linear_75_13)"/>
<path d="M1 0C1 0 4 8 7.5 11C11 14 16 15 16 15C16 15 15.5 22.5 18 29C18 29 8.5 28 7 28C5.5 28 1 29 1 29L0 15L1 0Z" fill="url(#paint1_linear_75_13)"/>
<path d="M27.2222 14.5C27.2222 14.5 23 19.5 22 21C21 22.5 18 29 18 29C18 29 16.7222 26.5 16.2222 23C15.7222 19.5 16 15 16 15L23.5 7.5L27.2222 14.5Z" fill="url(#paint2_linear_75_13)"/>
<defs>
<linearGradient id="paint0_linear_75_13" x1="9" y1="-2.50781e-07" x2="16" y2="14.5" gradientUnits="userSpaceOnUse">
<stop stop-color="#CDB9F6"/>
<stop offset="1" stop-color="#7E4BE6"/>
</linearGradient>
<linearGradient id="paint1_linear_75_13" x1="12" y1="9.00001" x2="1.00002" y2="29" gradientUnits="userSpaceOnUse">
<stop stop-color="#4F22A9"/>
<stop offset="0.9999" stop-color="#A782F2"/>
</linearGradient>
<linearGradient id="paint2_linear_75_13" x1="25.5" y1="17" x2="19" y2="13.5" gradientUnits="userSpaceOnUse">
<stop stop-color="#8453E6"/>
<stop offset="0.634615" stop-color="#5225AB"/>
</linearGradient>
</defs>
</svg>
