<svg width="138" height="48" viewBox="0 0 138 48" fill="none" xmlns="http://www.w3.org/2000/svg">
<path d="M40.6591 39.4261C38.5284 39.4261 36.6818 38.9574 35.1193 38.0199C33.5568 37.0824 32.3447 35.7708 31.483 34.0852C30.6307 32.3996 30.2045 30.4299 30.2045 28.1761C30.2045 25.9223 30.6307 23.9479 31.483 22.2528C32.3447 20.5578 33.5568 19.2415 35.1193 18.304C36.6818 17.3665 38.5284 16.8977 40.6591 16.8977C42.7898 16.8977 44.6364 17.3665 46.1989 18.304C47.7614 19.2415 48.9688 20.5578 49.821 22.2528C50.6828 23.9479 51.1136 25.9223 51.1136 28.1761C51.1136 30.4299 50.6828 32.3996 49.821 34.0852C48.9688 35.7708 47.7614 37.0824 46.1989 38.0199C44.6364 38.9574 42.7898 39.4261 40.6591 39.4261ZM40.6875 35.3068C41.8428 35.3068 42.8087 34.9896 43.5852 34.3551C44.3617 33.7112 44.9394 32.8494 45.3182 31.7699C45.7064 30.6903 45.9006 29.4877 45.9006 28.1619C45.9006 26.8267 45.7064 25.6193 45.3182 24.5398C44.9394 23.4508 44.3617 22.5843 43.5852 21.9403C42.8087 21.2964 41.8428 20.9744 40.6875 20.9744C39.5038 20.9744 38.5189 21.2964 37.733 21.9403C36.9564 22.5843 36.3741 23.4508 35.9858 24.5398C35.607 25.6193 35.4176 26.8267 35.4176 28.1619C35.4176 29.4877 35.607 30.6903 35.9858 31.7699C36.3741 32.8494 36.9564 33.7112 37.733 34.3551C38.5189 34.9896 39.5038 35.3068 40.6875 35.3068ZM64.995 39.4261C62.8643 39.4261 61.0178 38.9574 59.4553 38.0199C57.8928 37.0824 56.6806 35.7708 55.8189 34.0852C54.9666 32.3996 54.5405 30.4299 54.5405 28.1761C54.5405 25.9223 54.9666 23.9479 55.8189 22.2528C56.6806 20.5578 57.8928 19.2415 59.4553 18.304C61.0178 17.3665 62.8643 16.8977 64.995 16.8977C67.1257 16.8977 68.9723 17.3665 70.5348 18.304C72.0973 19.2415 73.3047 20.5578 74.157 22.2528C75.0187 23.9479 75.4496 25.9223 75.4496 28.1761C75.4496 30.4299 75.0187 32.3996 74.157 34.0852C73.3047 35.7708 72.0973 37.0824 70.5348 38.0199C68.9723 38.9574 67.1257 39.4261 64.995 39.4261ZM65.0234 35.3068C66.1787 35.3068 67.1446 34.9896 67.9212 34.3551C68.6977 33.7112 69.2753 32.8494 69.6541 31.7699C70.0424 30.6903 70.2365 29.4877 70.2365 28.1619C70.2365 26.8267 70.0424 25.6193 69.6541 24.5398C69.2753 23.4508 68.6977 22.5843 67.9212 21.9403C67.1446 21.2964 66.1787 20.9744 65.0234 20.9744C63.8397 20.9744 62.8549 21.2964 62.0689 21.9403C61.2924 22.5843 60.71 23.4508 60.3217 24.5398C59.9429 25.6193 59.7536 26.8267 59.7536 28.1619C59.7536 29.4877 59.9429 30.6903 60.3217 31.7699C60.71 32.8494 61.2924 33.7112 62.0689 34.3551C62.8549 34.9896 63.8397 35.3068 65.0234 35.3068ZM87.9105 39.3835C86.1965 39.3835 84.6624 38.9432 83.3082 38.0625C81.9541 37.1818 80.884 35.9034 80.098 34.2273C79.312 32.5511 78.919 30.5152 78.919 28.1193C78.919 25.6951 79.3168 23.6496 80.1122 21.983C80.9171 20.3068 82.0014 19.0426 83.3651 18.1903C84.7287 17.3286 86.2486 16.8977 87.9247 16.8977C89.2031 16.8977 90.2543 17.1155 91.0781 17.5511C91.902 17.9773 92.5554 18.4934 93.0384 19.0994C93.5213 19.696 93.8954 20.2595 94.1605 20.7898H94.3736V9.90909H99.5298V39H94.473V35.5625H94.1605C93.8954 36.0928 93.5118 36.6562 93.0099 37.2528C92.508 37.84 91.8452 38.3419 91.0213 38.7585C90.1974 39.1752 89.1605 39.3835 87.9105 39.3835ZM89.3452 35.1648C90.4342 35.1648 91.3622 34.8712 92.1293 34.2841C92.8963 33.6875 93.4787 32.8589 93.8764 31.7983C94.2741 30.7377 94.473 29.5019 94.473 28.0909C94.473 26.6799 94.2741 25.4536 93.8764 24.4119C93.4882 23.3703 92.9105 22.5606 92.1435 21.983C91.3859 21.4053 90.4531 21.1165 89.3452 21.1165C88.1993 21.1165 87.2429 21.4148 86.4759 22.0114C85.7088 22.608 85.1312 23.4318 84.7429 24.483C84.3546 25.5341 84.1605 26.7367 84.1605 28.0909C84.1605 29.4545 84.3546 30.6714 84.7429 31.7415C85.1406 32.8021 85.723 33.6402 86.4901 34.2557C87.2666 34.8617 88.2183 35.1648 89.3452 35.1648ZM110.151 9.90909V39H105.009V9.90909H110.151ZM125.098 39.4261C122.911 39.4261 121.021 38.9716 119.43 38.0625C117.849 37.1439 116.632 35.8466 115.78 34.1705C114.928 32.4848 114.501 30.5009 114.501 28.2188C114.501 25.9744 114.928 24.0047 115.78 22.3097C116.642 20.6051 117.844 19.2794 119.388 18.3324C120.931 17.3759 122.745 16.8977 124.828 16.8977C126.173 16.8977 127.442 17.1155 128.635 17.5511C129.838 17.9773 130.898 18.6402 131.817 19.5398C132.745 20.4394 133.474 21.5852 134.004 22.9773C134.535 24.3598 134.8 26.0076 134.8 27.9205V29.4972H116.916V26.0312H129.871C129.861 25.0464 129.648 24.1705 129.232 23.4034C128.815 22.6269 128.232 22.0161 127.484 21.571C126.746 21.1259 125.884 20.9034 124.899 20.9034C123.848 20.9034 122.925 21.1591 122.129 21.6705C121.334 22.1723 120.714 22.8352 120.268 23.6591C119.833 24.4735 119.61 25.3684 119.601 26.3438V29.3693C119.601 30.6383 119.833 31.7273 120.297 32.6364C120.761 33.536 121.41 34.2273 122.243 34.7102C123.076 35.1837 124.052 35.4205 125.169 35.4205C125.917 35.4205 126.594 35.3163 127.2 35.108C127.806 34.8902 128.332 34.5729 128.777 34.1562C129.222 33.7396 129.558 33.2235 129.786 32.608L134.587 33.1477C134.284 34.4167 133.706 35.5246 132.854 36.4716C132.011 37.4091 130.931 38.1383 129.615 38.6591C128.299 39.1705 126.793 39.4261 125.098 39.4261Z" fill="currentColor"/>
<path d="M1 10C1 10 2 10.5 5 11C8 11.5 18.1097 10 18.1097 10L23.5 17.5L16 25L1 28V10Z" fill="url(#paint0_linear_74_6)"/>
<path d="M1 10C1 10 4 18 7.5 21C11 24 16 25 16 25C16 25 15.5 32.5 18 39C18 39 8.5 38 7 38C5.5 38 1 39 1 39L0 25L1 10Z" fill="url(#paint1_linear_74_6)"/>
<path d="M27.2222 24.5C27.2222 24.5 23 29.5 22 31C21 32.5 18 39 18 39C18 39 16.7222 36.5 16.2222 33C15.7222 29.5 16 25 16 25L23.5 17.5L27.2222 24.5Z" fill="url(#paint2_linear_74_6)"/>
<defs>
<linearGradient id="paint0_linear_74_6" x1="9" y1="10" x2="16" y2="24.5" gradientUnits="userSpaceOnUse">
<stop stop-color="#CDB9F6"/>
<stop offset="1" stop-color="#7E4BE6"/>
</linearGradient>
<linearGradient id="paint1_linear_74_6" x1="12" y1="19" x2="1.00002" y2="39" gradientUnits="userSpaceOnUse">
<stop stop-color="#4F22A9"/>
<stop offset="0.9999" stop-color="#A782F2"/>
</linearGradient>
<linearGradient id="paint2_linear_74_6" x1="25.5" y1="27" x2="19" y2="23.5" gradientUnits="userSpaceOnUse">
<stop stop-color="#8453E6"/>
<stop offset="0.634615" stop-color="#5225AB"/>
</linearGradient>
</defs>
</svg>
