<svg width="24" height="24" viewBox="0 0 24 24" fill="none" xmlns="http://www.w3.org/2000/svg">
<g clip-path="url(#clip0_77_34)">
<path d="M23.1226 11.3472C23.2512 11.3793 23.3619 11.462 23.4302 11.5757C23.4982 11.6893 23.5189 11.8251 23.4868 11.9536C23.4547 12.0823 23.372 12.193 23.2583 12.2612L12.2583 18.8608V18.8618C12.1807 18.9083 12.0919 18.933 12.0015 18.9331C11.9108 18.9331 11.8214 18.9084 11.7437 18.8618V18.8608L0.743652 12.2612C0.629939 12.193 0.547299 12.0823 0.515137 11.9536C0.483087 11.8251 0.50373 11.6893 0.571777 11.5757C0.640005 11.462 0.750743 11.3793 0.879395 11.3472C1.00787 11.3151 1.14374 11.3358 1.25732 11.4038L11.7427 17.6958L12.0005 17.8501L12.2573 17.6958L22.6235 11.4751H22.6255L22.7446 11.4038C22.8582 11.3358 22.9941 11.3151 23.1226 11.3472Z" fill="#D9D9D9" fill-opacity="0.5" stroke="#999999"/>
<path d="M23.1226 15.9152C23.2512 15.9473 23.3619 16.03 23.4302 16.1437C23.4982 16.2573 23.5189 16.3931 23.4868 16.5216C23.4547 16.6503 23.372 16.761 23.2583 16.8292L12.2583 23.4288V23.4298C12.1807 23.4763 12.0919 23.501 12.0015 23.5011C11.9109 23.5011 11.8214 23.4764 11.7437 23.4298V23.4288L0.743652 16.8292C0.629939 16.761 0.547299 16.6503 0.515137 16.5216C0.499286 16.4581 0.496745 16.392 0.506348 16.3273C0.515996 16.2624 0.538089 16.1999 0.571777 16.1437C0.605497 16.0875 0.650009 16.0382 0.702637 15.9991C0.755394 15.9601 0.815692 15.9311 0.879395 15.9152C0.942931 15.8993 1.00895 15.8968 1.07373 15.9064C1.13856 15.916 1.2011 15.9381 1.25732 15.9718L11.7427 22.2628L11.9995 22.4171L12.2573 22.2628L22.6235 16.0431H22.6255L22.7446 15.9718C22.8582 15.9037 22.9941 15.8831 23.1226 15.9152Z" fill="#D9D9D9" fill-opacity="0.5" stroke="#999999"/>
<path d="M12.0002 0.727478C12.4488 0.727535 12.8892 0.849993 13.2737 1.08099L23.2581 7.0722C23.3316 7.11662 23.3925 7.17907 23.4348 7.25385C23.4773 7.32891 23.4993 7.4137 23.4993 7.49994C23.4993 7.58617 23.4773 7.67097 23.4348 7.74603C23.4029 7.80239 23.3603 7.85158 23.3098 7.89154L23.2571 7.92865L13.2737 13.9189L13.2727 13.9199C12.8885 14.1509 12.4486 14.2733 12.0002 14.2734C11.5517 14.2734 11.1112 14.151 10.7268 13.9199L10.7258 13.9189L0.742432 7.92865C0.668525 7.8842 0.607153 7.8211 0.564697 7.74603C0.522313 7.671 0.500244 7.58612 0.500244 7.49994C0.500254 7.41375 0.522291 7.32888 0.564697 7.25385C0.607026 7.179 0.667847 7.11566 0.741455 7.07123L0.742432 7.0722L10.7258 1.08099H10.7268C11.1114 0.849984 11.5516 0.727478 12.0002 0.727478Z" fill="#D9D9D9" fill-opacity="0.5" stroke="#999999"/>
</g>
<defs>
<clipPath id="clip0_77_34">
<rect width="24" height="24" fill="white"/>
</clipPath>
</defs>
</svg>
