<svg width="24" height="24" viewBox="0 0 24 24" fill="none" xmlns="http://www.w3.org/2000/svg">
<path d="M10.0664 5.05695C10.2542 5.0571 10.4286 5.16411 10.5137 5.33331V5.33429C10.9358 6.18843 11.3272 7.10619 11.709 8.14093L11.71 8.14288C12.4054 10.0041 13.7522 11.3733 15.5938 12.0794L15.5957 12.0804C16.6134 12.467 17.5178 12.8627 18.3594 13.2913C18.5274 13.3769 18.6327 13.5497 18.6328 13.7376C18.6328 13.9263 18.5276 14.0981 18.3594 14.1839C17.5155 14.6127 16.6114 15.0093 15.5918 15.3958H15.5898C13.7532 16.1009 12.4044 17.471 11.708 19.3353L11.707 19.3372C11.3262 20.3712 10.9355 21.2885 10.5137 22.139V22.14C10.4301 22.3096 10.2562 22.4181 10.0664 22.4183C9.90104 22.4183 9.74711 22.3357 9.6543 22.2005L9.61816 22.139C9.19806 21.2879 8.80757 20.3721 8.42383 19.3333V19.3323L8.28516 18.9886C7.55737 17.3011 6.26569 16.0558 4.53906 15.3939H4.53711C3.52198 15.0095 2.61757 14.6118 1.77344 14.1829C1.60553 14.0973 1.5 13.9246 1.5 13.7366C1.50014 13.5483 1.60625 13.3766 1.77246 13.2923L1.77344 13.2913C2.61166 12.8639 3.5169 12.4681 4.54102 12.0784L4.54199 12.0775C6.38073 11.3724 7.72941 10.0033 8.4248 8.13898V8.13702C8.80671 7.10382 9.19721 6.18599 9.61816 5.33527L9.61914 5.33429C9.70135 5.16642 9.87637 5.05695 10.0664 5.05695Z" fill="#D9D9D9" fill-opacity="0.5" stroke="#999999"/>
<path d="M20.5 6.5C20.5 6.22386 20.7239 6 21 6V6C21.2761 6 21.5 6.22386 21.5 6.5V9.5C21.5 9.77614 21.2761 10 21 10V10C20.7239 10 20.5 9.77614 20.5 9.5V6.5Z" fill="#999999"/>
<path d="M22.5 7.5C22.7761 7.5 23 7.72386 23 8V8C23 8.27614 22.7761 8.5 22.5 8.5L19.5 8.5C19.2239 8.5 19 8.27614 19 8V8C19 7.72386 19.2239 7.5 19.5 7.5L22.5 7.5Z" fill="#999999"/>
<line x1="16.5" y1="1.5" x2="16.5" y2="5.5" stroke="#999999" stroke-linecap="round"/>
<line x1="18.5" y1="3.5" x2="14.5" y2="3.5" stroke="#999999" stroke-linecap="round"/>
</svg>
