<svg width="22" height="24" viewBox="0 0 22 24" fill="none" xmlns="http://www.w3.org/2000/svg">
<path d="M10.2549 8.52051C10.9607 8.6355 11.499 9.31822 11.499 10.1074V16.5H11.9062L18.8184 19.2197C19.7113 19.571 20.3751 20.0439 20.8164 20.6357C21.1998 21.15 21.4353 21.781 21.4883 22.5566L21.5 22.8984C21.4999 22.9015 21.4994 22.9057 21.499 22.9111C21.4978 22.9286 21.4958 22.9573 21.4902 22.9922C21.4787 23.0644 21.456 23.1525 21.417 23.2344C21.3786 23.3149 21.3298 23.3767 21.2695 23.4189C21.2135 23.458 21.1189 23.5009 20.9492 23.501H6.15234C5.53853 23.501 4.94482 23.2744 4.48633 22.8652L3.05859 21.5898C2.34562 20.9227 2.30853 19.7902 2.98438 19.0664C3.61441 18.3917 4.65202 18.3157 5.37305 18.8633L5.5127 18.9814C5.57826 19.0414 6.62556 19.9165 7.68164 20.7861L8.49902 21.459V10C8.49902 9.14562 9.2123 8.45816 10.0801 8.50195L10.2549 8.52051ZM1 9.5H4C4.27586 9.5 4.5 9.72414 4.5 10C4.5 10.2759 4.27586 10.5 4 10.5H1C0.724142 10.5 0.5 10.2759 0.5 10C0.5 9.72414 0.724142 9.5 1 9.5ZM16 9.5H19C19.2759 9.5 19.5 9.72414 19.5 10C19.5 10.2759 19.2759 10.5 19 10.5H16C15.7241 10.5 15.5 10.2759 15.5 10C15.5 9.72414 15.7241 9.5 16 9.5ZM3.25098 3.3584C3.44664 3.16304 3.76137 3.16304 3.95703 3.3584L6.0791 5.48047C6.27484 5.67621 6.27484 5.99176 6.0791 6.1875C5.98144 6.28505 5.85399 6.33398 5.72559 6.33398C5.59723 6.33388 5.46965 6.28508 5.37207 6.1875L3.25098 4.06543C3.05524 3.86969 3.05524 3.55414 3.25098 3.3584ZM16.0107 3.28223C16.2065 3.08675 16.5221 3.08657 16.7178 3.28223C16.9134 3.47788 16.9133 3.7935 16.7178 3.98926L14.5967 6.11035C14.4009 6.30609 14.0854 6.30609 13.8896 6.11035C13.6939 5.91461 13.6939 5.59906 13.8896 5.40332L16.0107 3.28223ZM10 0.5C10.2759 0.5 10.5 0.724142 10.5 1V4C10.5 4.27586 10.2759 4.5 10 4.5C9.72414 4.5 9.5 4.27586 9.5 4V1C9.5 0.724142 9.72414 0.5 10 0.5Z" fill="#D9D9D9" fill-opacity="0.5" stroke="#999999"/>
</svg>
